<svg xmlns="http://www.w3.org/2000/svg" viewBox="0 0 268.83 191.61"><defs><style>.cls-1{fill:#1d1d1b;}</style></defs><g id="Layer_2" data-name="Layer 2"><g id="Layer_1-2" data-name="Layer 1"><path class="cls-1" d="M17.43,97.8l13-35.86.25,10.54L1.25,0H18.93L38.75,51.29h-4L54.42,0h17L33.23,97.8Z"/><path class="cls-1" d="M102.32,69.72q-8,0-13-2.7a21.44,21.44,0,0,1-7.81-6.83,28.57,28.57,0,0,1-4-8.62,44.29,44.29,0,0,1-1.44-8.18c-.17-2.47-.25-4.27-.25-5.4V0h17.3V32c0,1.54.09,3.52.26,5.92A26.26,26.26,0,0,0,95,45.14a13.77,13.77,0,0,0,4.3,6.08q3,2.45,8.43,2.45a17.76,17.76,0,0,0,4.7-.69,11.59,11.59,0,0,0,4.7-2.67,14.18,14.18,0,0,0,3.61-5.83,30.05,30.05,0,0,0,1.41-10.12L131.91,39a35.31,35.31,0,0,1-3.26,15,26.93,26.93,0,0,1-9.81,11.35Q112.29,69.72,102.32,69.72Zm21.94-2V45.27h-2.13V0h17.18V67.71Z"/><path class="cls-1" d="M145,83.63V70.47h82.76V83.63Z"/><path class="cls-1" d="M0,191.61V178.45H82.76v13.16Z"/><path class="cls-1" d="M114.86,177.57q-12.8,0-20.66-5.8t-9.56-16.4l17.43-2.63a12.19,12.19,0,0,0,4.73,7.46,15.28,15.28,0,0,0,9.31,2.7q4.64,0,7.15-1.79a5.77,5.77,0,0,0,2.5-5,4.91,4.91,0,0,0-1-3.23c-.67-.82-2.16-1.62-4.48-2.42s-5.93-1.83-10.82-3.13a61.07,61.07,0,0,1-13.22-4.77,17.55,17.55,0,0,1-7.15-6.3,16.89,16.89,0,0,1-2.2-8.87,19.32,19.32,0,0,1,3.33-11.31,21.18,21.18,0,0,1,9.37-7.4,35.81,35.81,0,0,1,14.26-2.6A38,38,0,0,1,128,108.54a24.59,24.59,0,0,1,9.94,7,20.88,20.88,0,0,1,4.67,10.66l-17.43,3.13a8.47,8.47,0,0,0-3.26-5.95,13.92,13.92,0,0,0-7.65-2.57,13.7,13.7,0,0,0-7.56,1.25,4.92,4.92,0,0,0-2.85,4.51,4,4,0,0,0,1.22,2.95,14.3,14.3,0,0,0,5.08,2.45q3.85,1.24,11.76,3.26a51,51,0,0,1,12.38,4.67,17.51,17.51,0,0,1,6.8,6.39,17.89,17.89,0,0,1,2.13,9q0,10.41-7.52,16.36T114.86,177.57Z"/><path class="cls-1" d="M179.06,177.69q-8,0-13-2.69a21.38,21.38,0,0,1-7.81-6.84,28.57,28.57,0,0,1-4-8.62,44,44,0,0,1-1.44-8.18c-.17-2.46-.25-4.26-.25-5.39V108h17.3v32c0,1.55.09,3.52.25,5.93a26.73,26.73,0,0,0,1.57,7.24A13.88,13.88,0,0,0,176,159.2q3,2.45,8.44,2.44a17.76,17.76,0,0,0,4.7-.69,11.68,11.68,0,0,0,4.7-2.66,14.35,14.35,0,0,0,3.61-5.83,30.11,30.11,0,0,0,1.41-10.13l9.78,4.64A35.36,35.36,0,0,1,205.39,162a27.13,27.13,0,0,1-9.81,11.35Q189,177.69,179.06,177.69Zm21.94-2V153.24h-2.13V108h17.18v67.71Z"/><path class="cls-1" d="M225.45,121.14V108h43.38v13.16Zm10.66,54.55V108.23c0-1.72,0-3.66.12-5.83a28.77,28.77,0,0,1,1-6.59,14.59,14.59,0,0,1,3.35-6,16.56,16.56,0,0,1,6.8-4.79,23.29,23.29,0,0,1,7.12-1.38c2.3-.06,4.26-.09,5.89-.09h8.4V97.32h-7.77q-4,0-6,2a6.78,6.78,0,0,0-1.94,4.85v71.48Z"/></g></g></svg>